<?xml version="1.0" standalone="no"?>
<!DOCTYPE svg PUBLIC "-//W3C//DTD SVG 20010904//EN"
 "http://www.w3.org/TR/2001/REC-SVG-20010904/DTD/svg10.dtd">
<svg version="1.0" xmlns="http://www.w3.org/2000/svg"
 width="150.000000pt" height="84.000000pt" viewBox="0 0 150.000000 84.000000"
 preserveAspectRatio="xMidYMid meet">

<g transform="translate(0.000000,84.000000) scale(0.100000,-0.100000)"
fill="#000000" stroke="none">
<path d="M810 490 c-24 -6 -87 -31 -139 -57 -104 -53 -112 -54 -361 -43 -74 3
-93 0 -146 -23 -33 -14 -84 -29 -112 -33 -37 -5 -52 -11 -52 -22 0 -23 111 -9
190 23 l65 27 126 -12 c70 -7 144 -10 165 -7 22 4 86 30 142 58 140 69 196 73
409 30 161 -33 272 -39 349 -20 32 8 44 16 44 30 0 23 6 23 -71 3 -73 -19
-138 -14 -304 21 -131 28 -244 37 -305 25z"/>
<path d="M798 430 c-21 -5 -75 -30 -122 -54 -105 -55 -147 -62 -299 -46 l-122
13 -65 -27 c-36 -15 -93 -30 -127 -33 -35 -3 -63 -10 -63 -16 0 -16 106 1 170
28 66 28 131 31 258 15 95 -12 142 -2 261 58 90 45 99 47 190 50 75 3 122 -2
216 -23 165 -36 265 -42 338 -21 31 9 57 20 57 25 0 5 -17 3 -37 -5 -62 -22
-199 -17 -331 12 -130 28 -267 38 -324 24z"/>
</g>
</svg>
