<?xml version="1.0" encoding="UTF-8"?>
<svg id="Layer_2" data-name="Layer 2" xmlns="http://www.w3.org/2000/svg" viewBox="0 0 84.16 54.4">
  <defs>
    <style>
      .cls-1 {
        letter-spacing: .04em;
      }

      .cls-2 {
        letter-spacing: .04em;
      }

      .cls-3 {
        letter-spacing: .03em;
      }

      .cls-4 {
        letter-spacing: .04em;
      }

      .cls-5 {
        letter-spacing: .02em;
      }

      .cls-6 {
        fill: #5e5edd;
      }

      .cls-6, .cls-7, .cls-8, .cls-9 {
        font-family: AmericanCaptain, 'American Captain';
      }

      .cls-6, .cls-9 {
        font-size: 18.73px;
      }

      .cls-10 {
        letter-spacing: .02em;
      }

      .cls-7 {
        fill: #f2c178;
      }

      .cls-7, .cls-8 {
        font-size: 35.88px;
      }

      .cls-11 {
        letter-spacing: .03em;
      }

      .cls-12 {
        letter-spacing: .02em;
      }

      .cls-8 {
        fill: #935d07;
      }

      .cls-9 {
        fill: #282870;
      }

      .cls-13 {
        letter-spacing: .01em;
      }

      .cls-14 {
        letter-spacing: .03em;
      }
    </style>
  </defs>
  <g id="Layer_1-2" data-name="Layer 1">
    <g>
      <g>
        <g>
          <text class="cls-8" transform="translate(1.77 32.27) scale(1.02 1)"><tspan class="cls-4" x="0" y="0">N</tspan><tspan class="cls-5" x="16.4" y="0">o</tspan><tspan class="cls-10" x="32.79" y="0">i</tspan><tspan class="cls-13" x="40.75" y="0">z</tspan><tspan class="cls-12" x="54.53" y="0">e</tspan><tspan x="68.2" y="0">e</tspan></text>
          <text class="cls-8" transform="translate(1.62 32.12) scale(1.02 1)"><tspan class="cls-4" x="0" y="0">N</tspan><tspan class="cls-5" x="16.4" y="0">o</tspan><tspan class="cls-10" x="32.79" y="0">i</tspan><tspan class="cls-13" x="40.75" y="0">z</tspan><tspan class="cls-12" x="54.53" y="0">e</tspan><tspan x="68.2" y="0">e</tspan></text>
          <text class="cls-8" transform="translate(1.48 31.97) scale(1.02 1)"><tspan class="cls-4" x="0" y="0">N</tspan><tspan class="cls-5" x="16.4" y="0">o</tspan><tspan class="cls-10" x="32.79" y="0">i</tspan><tspan class="cls-13" x="40.75" y="0">z</tspan><tspan class="cls-12" x="54.53" y="0">e</tspan><tspan x="68.2" y="0">e</tspan></text>
          <text class="cls-8" transform="translate(1.33 31.82) scale(1.02 1)"><tspan class="cls-4" x="0" y="0">N</tspan><tspan class="cls-5" x="16.4" y="0">o</tspan><tspan class="cls-10" x="32.79" y="0">i</tspan><tspan class="cls-13" x="40.75" y="0">z</tspan><tspan class="cls-12" x="54.53" y="0">e</tspan><tspan x="68.2" y="0">e</tspan></text>
          <text class="cls-8" transform="translate(1.18 31.68) scale(1.02 1)"><tspan class="cls-4" x="0" y="0">N</tspan><tspan class="cls-5" x="16.4" y="0">o</tspan><tspan class="cls-10" x="32.79" y="0">i</tspan><tspan class="cls-13" x="40.75" y="0">z</tspan><tspan class="cls-12" x="54.53" y="0">e</tspan><tspan x="68.2" y="0">e</tspan></text>
          <text class="cls-8" transform="translate(1.03 31.53) scale(1.02 1)"><tspan class="cls-4" x="0" y="0">N</tspan><tspan class="cls-5" x="16.4" y="0">o</tspan><tspan class="cls-10" x="32.79" y="0">i</tspan><tspan class="cls-13" x="40.75" y="0">z</tspan><tspan class="cls-12" x="54.53" y="0">e</tspan><tspan x="68.2" y="0">e</tspan></text>
          <text class="cls-8" transform="translate(.89 31.38) scale(1.02 1)"><tspan class="cls-4" x="0" y="0">N</tspan><tspan class="cls-5" x="16.4" y="0">o</tspan><tspan class="cls-10" x="32.79" y="0">i</tspan><tspan class="cls-13" x="40.75" y="0">z</tspan><tspan class="cls-12" x="54.53" y="0">e</tspan><tspan x="68.2" y="0">e</tspan></text>
          <text class="cls-8" transform="translate(.74 31.23) scale(1.02 1)"><tspan class="cls-4" x="0" y="0">N</tspan><tspan class="cls-5" x="16.4" y="0">o</tspan><tspan class="cls-10" x="32.79" y="0">i</tspan><tspan class="cls-13" x="40.75" y="0">z</tspan><tspan class="cls-12" x="54.53" y="0">e</tspan><tspan x="68.2" y="0">e</tspan></text>
          <text class="cls-8" transform="translate(.59 31.08) scale(1.02 1)"><tspan class="cls-4" x="0" y="0">N</tspan><tspan class="cls-5" x="16.4" y="0">o</tspan><tspan class="cls-10" x="32.79" y="0">i</tspan><tspan class="cls-13" x="40.75" y="0">z</tspan><tspan class="cls-12" x="54.53" y="0">e</tspan><tspan x="68.2" y="0">e</tspan></text>
          <text class="cls-8" transform="translate(.44 30.94) scale(1.02 1)"><tspan class="cls-4" x="0" y="0">N</tspan><tspan class="cls-5" x="16.4" y="0">o</tspan><tspan class="cls-10" x="32.79" y="0">i</tspan><tspan class="cls-13" x="40.75" y="0">z</tspan><tspan class="cls-12" x="54.53" y="0">e</tspan><tspan x="68.2" y="0">e</tspan></text>
          <text class="cls-8" transform="translate(.3 30.79) scale(1.02 1)"><tspan class="cls-4" x="0" y="0">N</tspan><tspan class="cls-5" x="16.4" y="0">o</tspan><tspan class="cls-10" x="32.79" y="0">i</tspan><tspan class="cls-13" x="40.75" y="0">z</tspan><tspan class="cls-12" x="54.53" y="0">e</tspan><tspan x="68.2" y="0">e</tspan></text>
          <text class="cls-8" transform="translate(.15 30.64) scale(1.02 1)"><tspan class="cls-4" x="0" y="0">N</tspan><tspan class="cls-5" x="16.4" y="0">o</tspan><tspan class="cls-10" x="32.79" y="0">i</tspan><tspan class="cls-13" x="40.75" y="0">z</tspan><tspan class="cls-12" x="54.53" y="0">e</tspan><tspan x="68.2" y="0">e</tspan></text>
          <text class="cls-8" transform="translate(0 30.49) scale(1.02 1)"><tspan class="cls-4" x="0" y="0">N</tspan><tspan class="cls-5" x="16.4" y="0">o</tspan><tspan class="cls-10" x="32.79" y="0">i</tspan><tspan class="cls-13" x="40.75" y="0">z</tspan><tspan class="cls-12" x="54.53" y="0">e</tspan><tspan x="68.2" y="0">e</tspan></text>
        </g>
        <text class="cls-7" transform="translate(0 30.49) scale(1.02 1)"><tspan class="cls-4" x="0" y="0">N</tspan><tspan class="cls-5" x="16.4" y="0">o</tspan><tspan class="cls-10" x="32.79" y="0">i</tspan><tspan class="cls-13" x="40.75" y="0">z</tspan><tspan class="cls-12" x="54.53" y="0">e</tspan><tspan x="68.2" y="0">e</tspan></text>
      </g>
      <g>
        <g>
          <text class="cls-9" transform="translate(1.59 50.11) scale(1.02 1)"><tspan class="cls-11" x="0" y="0">F</tspan><tspan class="cls-1" x="7.23" y="0">or A</tspan><tspan class="cls-14" x="36.76" y="0">r</tspan><tspan class="cls-2" x="45.54" y="0">ti</tspan><tspan class="cls-3" x="57.51" y="0">s</tspan><tspan class="cls-11" x="65.22" y="0">t</tspan><tspan class="cls-1" x="72.64" y="0">s</tspan></text>
          <text class="cls-9" transform="translate(1.51 50.03) scale(1.02 1)"><tspan class="cls-11" x="0" y="0">F</tspan><tspan class="cls-1" x="7.23" y="0">or A</tspan><tspan class="cls-14" x="36.76" y="0">r</tspan><tspan class="cls-2" x="45.54" y="0">ti</tspan><tspan class="cls-3" x="57.51" y="0">s</tspan><tspan class="cls-11" x="65.22" y="0">t</tspan><tspan class="cls-1" x="72.64" y="0">s</tspan></text>
          <text class="cls-9" transform="translate(1.43 49.96) scale(1.02 1)"><tspan class="cls-11" x="0" y="0">F</tspan><tspan class="cls-1" x="7.23" y="0">or A</tspan><tspan class="cls-14" x="36.76" y="0">r</tspan><tspan class="cls-2" x="45.54" y="0">ti</tspan><tspan class="cls-3" x="57.51" y="0">s</tspan><tspan class="cls-11" x="65.22" y="0">t</tspan><tspan class="cls-1" x="72.64" y="0">s</tspan></text>
          <text class="cls-9" transform="translate(1.35 49.88) scale(1.02 1)"><tspan class="cls-11" x="0" y="0">F</tspan><tspan class="cls-1" x="7.23" y="0">or A</tspan><tspan class="cls-14" x="36.76" y="0">r</tspan><tspan class="cls-2" x="45.54" y="0">ti</tspan><tspan class="cls-3" x="57.51" y="0">s</tspan><tspan class="cls-11" x="65.22" y="0">t</tspan><tspan class="cls-1" x="72.64" y="0">s</tspan></text>
          <text class="cls-9" transform="translate(1.28 49.8) scale(1.02 1)"><tspan class="cls-11" x="0" y="0">F</tspan><tspan class="cls-1" x="7.23" y="0">or A</tspan><tspan class="cls-14" x="36.76" y="0">r</tspan><tspan class="cls-2" x="45.54" y="0">ti</tspan><tspan class="cls-3" x="57.51" y="0">s</tspan><tspan class="cls-11" x="65.22" y="0">t</tspan><tspan class="cls-1" x="72.64" y="0">s</tspan></text>
          <text class="cls-9" transform="translate(1.2 49.73) scale(1.02 1)"><tspan class="cls-11" x="0" y="0">F</tspan><tspan class="cls-1" x="7.23" y="0">or A</tspan><tspan class="cls-14" x="36.76" y="0">r</tspan><tspan class="cls-2" x="45.54" y="0">ti</tspan><tspan class="cls-3" x="57.51" y="0">s</tspan><tspan class="cls-11" x="65.22" y="0">t</tspan><tspan class="cls-1" x="72.64" y="0">s</tspan></text>
          <text class="cls-9" transform="translate(1.12 49.65) scale(1.02 1)"><tspan class="cls-11" x="0" y="0">F</tspan><tspan class="cls-1" x="7.23" y="0">or A</tspan><tspan class="cls-14" x="36.76" y="0">r</tspan><tspan class="cls-2" x="45.54" y="0">ti</tspan><tspan class="cls-3" x="57.51" y="0">s</tspan><tspan class="cls-11" x="65.22" y="0">t</tspan><tspan class="cls-1" x="72.64" y="0">s</tspan></text>
          <text class="cls-9" transform="translate(1.05 49.57) scale(1.02 1)"><tspan class="cls-11" x="0" y="0">F</tspan><tspan class="cls-1" x="7.23" y="0">or A</tspan><tspan class="cls-14" x="36.76" y="0">r</tspan><tspan class="cls-2" x="45.54" y="0">ti</tspan><tspan class="cls-3" x="57.51" y="0">s</tspan><tspan class="cls-11" x="65.22" y="0">t</tspan><tspan class="cls-1" x="72.64" y="0">s</tspan></text>
          <text class="cls-9" transform="translate(.97 49.49) scale(1.02 1)"><tspan class="cls-11" x="0" y="0">F</tspan><tspan class="cls-1" x="7.23" y="0">or A</tspan><tspan class="cls-14" x="36.76" y="0">r</tspan><tspan class="cls-2" x="45.54" y="0">ti</tspan><tspan class="cls-3" x="57.51" y="0">s</tspan><tspan class="cls-11" x="65.22" y="0">t</tspan><tspan class="cls-1" x="72.64" y="0">s</tspan></text>
          <text class="cls-9" transform="translate(.89 49.42) scale(1.02 1)"><tspan class="cls-11" x="0" y="0">F</tspan><tspan class="cls-1" x="7.23" y="0">or A</tspan><tspan class="cls-14" x="36.76" y="0">r</tspan><tspan class="cls-2" x="45.54" y="0">ti</tspan><tspan class="cls-3" x="57.51" y="0">s</tspan><tspan class="cls-11" x="65.22" y="0">t</tspan><tspan class="cls-1" x="72.64" y="0">s</tspan></text>
          <text class="cls-9" transform="translate(.81 49.34) scale(1.02 1)"><tspan class="cls-11" x="0" y="0">F</tspan><tspan class="cls-1" x="7.23" y="0">or A</tspan><tspan class="cls-14" x="36.76" y="0">r</tspan><tspan class="cls-2" x="45.54" y="0">ti</tspan><tspan class="cls-3" x="57.51" y="0">s</tspan><tspan class="cls-11" x="65.22" y="0">t</tspan><tspan class="cls-1" x="72.64" y="0">s</tspan></text>
          <text class="cls-9" transform="translate(.74 49.26) scale(1.02 1)"><tspan class="cls-11" x="0" y="0">F</tspan><tspan class="cls-1" x="7.23" y="0">or A</tspan><tspan class="cls-14" x="36.76" y="0">r</tspan><tspan class="cls-2" x="45.54" y="0">ti</tspan><tspan class="cls-3" x="57.51" y="0">s</tspan><tspan class="cls-11" x="65.22" y="0">t</tspan><tspan class="cls-1" x="72.64" y="0">s</tspan></text>
          <text class="cls-9" transform="translate(.66 49.19) scale(1.02 1)"><tspan class="cls-11" x="0" y="0">F</tspan><tspan class="cls-1" x="7.23" y="0">or A</tspan><tspan class="cls-14" x="36.76" y="0">r</tspan><tspan class="cls-2" x="45.54" y="0">ti</tspan><tspan class="cls-3" x="57.51" y="0">s</tspan><tspan class="cls-11" x="65.22" y="0">t</tspan><tspan class="cls-1" x="72.64" y="0">s</tspan></text>
        </g>
        <text class="cls-6" transform="translate(.66 49.19) scale(1.02 1)"><tspan class="cls-11" x="0" y="0">F</tspan><tspan class="cls-1" x="7.23" y="0">or A</tspan><tspan class="cls-14" x="36.76" y="0">r</tspan><tspan class="cls-2" x="45.54" y="0">ti</tspan><tspan class="cls-3" x="57.51" y="0">s</tspan><tspan class="cls-11" x="65.22" y="0">t</tspan><tspan class="cls-1" x="72.64" y="0">s</tspan></text>
      </g>
    </g>
  </g>
</svg>