<?xml version="1.0" encoding="UTF-8"?>
<svg id="Layer_2" data-name="Layer 2" xmlns="http://www.w3.org/2000/svg" viewBox="0 0 82.34 45.63">
  <defs>
    <style>
      .cls-1 {
        fill: #282870;
      }

      .cls-2 {
        fill: #f2c178;
      }

      .cls-3 {
        fill: #935d07;
      }

      .cls-4 {
        fill: #5e5edd;
      }
    </style>
  </defs>
  <g id="Layer_1-2" data-name="Layer 1">
    <g>
      <g>
        <g>
          <g>
            <path class="cls-3" d="m1.77,1.77h5.03l2.7,10.44V1.77h5.44v26.01h-5.44l-2.85-10.87v10.87H1.77V1.77Z"/>
            <path class="cls-3" d="m32.17,24.08c0,1.97-.84,3.7-3.79,3.7h-6.13c-2.96,0-3.79-1.72-3.79-3.7V5.14c0-2.04,1.09-3.37,3.58-3.37h6.57c2.48,0,3.58,1.33,3.58,3.37v18.94Zm-7.92-17.76c-.37,0-.47.18-.47.5v15.86c0,.39.07.54.51.54h2.01c.44,0,.51-.14.51-.54V6.83c0-.32-.11-.5-.47-.5h-2.08Z"/>
            <path class="cls-3" d="m35.12,1.77h5.29v26.01h-5.29V1.77Z"/>
            <path class="cls-3" d="m49.61,22.94h4.96l-.91,4.84h-11.16l5.95-21.17h-5.51l.91-4.84h11.46l-5.69,21.17Z"/>
            <path class="cls-3" d="m57.23,1.77h10.29l.91,4.84h-5.76v6.17h4.38v4.48h-4.38v5.67h5.55l-.91,4.84h-10.07V1.77Z"/>
            <path class="cls-3" d="m71.14,1.77h10.29l.91,4.84h-5.76v6.17h4.38v4.48h-4.38v5.67h5.55l-.91,4.84h-10.07V1.77Z"/>
          </g>
          <g>
            <path class="cls-3" d="m1.62,1.62h5.03l2.7,10.44V1.62h5.44v26.01h-5.44l-2.85-10.87v10.87H1.62V1.62Z"/>
            <path class="cls-3" d="m32.02,23.94c0,1.97-.84,3.7-3.79,3.7h-6.13c-2.96,0-3.79-1.72-3.79-3.7V5c0-2.04,1.09-3.37,3.58-3.37h6.57c2.48,0,3.58,1.33,3.58,3.37v18.94Zm-7.92-17.76c-.37,0-.47.18-.47.5v15.86c0,.39.07.54.51.54h2.01c.44,0,.51-.14.51-.54V6.68c0-.32-.11-.5-.47-.5h-2.08Z"/>
            <path class="cls-3" d="m34.97,1.62h5.29v26.01h-5.29V1.62Z"/>
            <path class="cls-3" d="m49.46,22.79h4.96l-.91,4.84h-11.16l5.95-21.17h-5.51l.91-4.84h11.46l-5.69,21.17Z"/>
            <path class="cls-3" d="m57.09,1.62h10.29l.91,4.84h-5.76v6.17h4.38v4.48h-4.38v5.67h5.55l-.91,4.84h-10.07V1.62Z"/>
            <path class="cls-3" d="m70.99,1.62h10.29l.91,4.84h-5.76v6.17h4.38v4.48h-4.38v5.67h5.55l-.91,4.84h-10.07V1.62Z"/>
          </g>
          <g>
            <path class="cls-3" d="m1.48,1.48h5.03l2.7,10.44V1.48h5.44v26.01h-5.44l-2.85-10.87v10.87H1.48V1.48Z"/>
            <path class="cls-3" d="m31.87,23.79c0,1.97-.84,3.7-3.79,3.7h-6.13c-2.96,0-3.79-1.72-3.79-3.7V4.85c0-2.04,1.09-3.37,3.58-3.37h6.57c2.48,0,3.58,1.33,3.58,3.37v18.94Zm-7.92-17.76c-.37,0-.47.18-.47.5v15.86c0,.39.07.54.51.54h2.01c.44,0,.51-.14.51-.54V6.53c0-.32-.11-.5-.47-.5h-2.08Z"/>
            <path class="cls-3" d="m34.83,1.48h5.29v26.01h-5.29V1.48Z"/>
            <path class="cls-3" d="m49.31,22.64h4.96l-.91,4.84h-11.16l5.95-21.17h-5.51l.91-4.84h11.46l-5.69,21.16Z"/>
            <path class="cls-3" d="m56.94,1.48h10.29l.91,4.84h-5.76v6.17h4.38v4.48h-4.38v5.67h5.55l-.91,4.84h-10.07V1.48Z"/>
            <path class="cls-3" d="m70.84,1.48h10.29l.91,4.84h-5.76v6.17h4.38v4.48h-4.38v5.67h5.55l-.91,4.84h-10.07V1.48Z"/>
          </g>
          <g>
            <path class="cls-3" d="m1.33,1.33h5.03l2.7,10.44V1.33h5.44v26.01h-5.44l-2.85-10.87v10.87H1.33V1.33Z"/>
            <path class="cls-3" d="m31.72,23.64c0,1.97-.84,3.7-3.79,3.7h-6.13c-2.96,0-3.79-1.72-3.79-3.7V4.7c0-2.04,1.09-3.37,3.58-3.37h6.57c2.48,0,3.58,1.33,3.58,3.37v18.94Zm-7.92-17.76c-.37,0-.47.18-.47.5v15.86c0,.39.07.54.51.54h2.01c.44,0,.51-.14.51-.54V6.39c0-.32-.11-.5-.47-.5h-2.08Z"/>
            <path class="cls-3" d="m34.68,1.33h5.29v26.01h-5.29V1.33Z"/>
            <path class="cls-3" d="m49.17,22.49h4.96l-.91,4.84h-11.16l5.95-21.17h-5.51l.91-4.84h11.46l-5.69,21.17Z"/>
            <path class="cls-3" d="m56.79,1.33h10.29l.91,4.84h-5.76v6.17h4.38v4.48h-4.38v5.67h5.55l-.91,4.84h-10.07V1.33Z"/>
            <path class="cls-3" d="m70.69,1.33h10.29l.91,4.84h-5.76v6.17h4.38v4.48h-4.38v5.67h5.55l-.91,4.84h-10.07V1.33Z"/>
          </g>
          <g>
            <path class="cls-3" d="m1.18,1.18h5.03l2.7,10.44V1.18h5.44v26.01h-5.44l-2.85-10.87v10.87H1.18V1.18Z"/>
            <path class="cls-3" d="m31.58,23.49c0,1.97-.84,3.7-3.79,3.7h-6.13c-2.96,0-3.79-1.72-3.79-3.7V4.55c0-2.04,1.09-3.37,3.58-3.37h6.57c2.48,0,3.58,1.33,3.58,3.37v18.94Zm-7.92-17.76c-.37,0-.47.18-.47.5v15.86c0,.39.07.54.51.54h2.01c.44,0,.51-.14.51-.54V6.24c0-.32-.11-.5-.47-.5h-2.08Z"/>
            <path class="cls-3" d="m34.53,1.18h5.29v26.01h-5.29V1.18Z"/>
            <path class="cls-3" d="m49.02,22.35h4.96l-.91,4.84h-11.16l5.95-21.17h-5.51l.91-4.84h11.46l-5.69,21.17Z"/>
            <path class="cls-3" d="m56.64,1.18h10.29l.91,4.84h-5.76v6.17h4.38v4.48h-4.38v5.67h5.55l-.91,4.84h-10.07V1.18Z"/>
            <path class="cls-3" d="m70.55,1.18h10.29l.91,4.84h-5.76v6.17h4.38v4.48h-4.38v5.67h5.55l-.91,4.84h-10.07V1.18Z"/>
          </g>
          <g>
            <path class="cls-3" d="m1.03,1.03h5.03l2.7,10.44V1.03h5.44v26.01h-5.44l-2.85-10.87v10.87H1.03V1.03Z"/>
            <path class="cls-3" d="m31.43,23.35c0,1.97-.84,3.7-3.79,3.7h-6.13c-2.96,0-3.79-1.72-3.79-3.7V4.41c0-2.04,1.09-3.37,3.58-3.37h6.57c2.48,0,3.58,1.33,3.58,3.37v18.94Zm-7.92-17.76c-.37,0-.47.18-.47.5v15.86c0,.39.07.54.51.54h2.01c.44,0,.51-.14.51-.54V6.09c0-.32-.11-.5-.47-.5h-2.08Z"/>
            <path class="cls-3" d="m34.38,1.03h5.29v26.01h-5.29V1.03Z"/>
            <path class="cls-3" d="m48.87,22.2h4.96l-.91,4.84h-11.16l5.95-21.17h-5.51l.91-4.84h11.46l-5.69,21.17Z"/>
            <path class="cls-3" d="m56.5,1.03h10.29l.91,4.84h-5.76v6.17h4.38v4.48h-4.38v5.67h5.55l-.91,4.84h-10.07V1.03Z"/>
            <path class="cls-3" d="m70.4,1.03h10.29l.91,4.84h-5.76v6.17h4.38v4.48h-4.38v5.67h5.55l-.91,4.84h-10.07V1.03Z"/>
          </g>
          <g>
            <path class="cls-3" d="m.89.89h5.03l2.7,10.44V.89h5.44v26.01h-5.44l-2.85-10.87v10.87H.89V.89Z"/>
            <path class="cls-3" d="m31.28,23.2c0,1.97-.84,3.7-3.79,3.7h-6.13c-2.96,0-3.79-1.72-3.79-3.7V4.26c0-2.04,1.09-3.37,3.58-3.37h6.57c2.48,0,3.58,1.33,3.58,3.37v18.94Zm-7.92-17.76c-.37,0-.47.18-.47.5v15.86c0,.39.07.54.51.54h2.01c.44,0,.51-.14.51-.54V5.94c0-.32-.11-.5-.47-.5h-2.08Z"/>
            <path class="cls-3" d="m34.24.89h5.29v26.01h-5.29V.89Z"/>
            <path class="cls-3" d="m48.72,22.05h4.96l-.91,4.84h-11.16l5.95-21.17h-5.51l.91-4.84h11.46l-5.69,21.17Z"/>
            <path class="cls-3" d="m56.35.89h10.29l.91,4.84h-5.76v6.17h4.38v4.48h-4.38v5.67h5.55l-.91,4.84h-10.07V.89Z"/>
            <path class="cls-3" d="m70.25.89h10.29l.91,4.84h-5.76v6.17h4.38v4.48h-4.38v5.67h5.55l-.91,4.84h-10.07V.89Z"/>
          </g>
          <g>
            <path class="cls-3" d="m.74.74h5.03l2.7,10.44V.74h5.44v26.01h-5.44l-2.85-10.87v10.87H.74V.74Z"/>
            <path class="cls-3" d="m31.13,23.05c0,1.97-.84,3.7-3.79,3.7h-6.13c-2.96,0-3.79-1.72-3.79-3.7V4.11c0-2.04,1.09-3.37,3.58-3.37h6.57c2.48,0,3.58,1.33,3.58,3.37v18.94Zm-7.92-17.76c-.37,0-.47.18-.47.5v15.86c0,.39.07.54.51.54h2.01c.44,0,.51-.14.51-.54V5.8c0-.32-.11-.5-.47-.5h-2.08Z"/>
            <path class="cls-3" d="m34.09.74h5.29v26.01h-5.29V.74Z"/>
            <path class="cls-3" d="m48.57,21.9h4.96l-.91,4.84h-11.16l5.95-21.17h-5.51l.91-4.84h11.46l-5.69,21.17Z"/>
            <path class="cls-3" d="m56.2.74h10.29l.91,4.84h-5.76v6.17h4.38v4.48h-4.38v5.67h5.55l-.91,4.84h-10.07V.74Z"/>
            <path class="cls-3" d="m70.1.74h10.29l.91,4.84h-5.76v6.17h4.38v4.48h-4.38v5.67h5.55l-.91,4.84h-10.07V.74Z"/>
          </g>
          <g>
            <path class="cls-3" d="m.59.59h5.03l2.7,10.44V.59h5.44v26.01h-5.44l-2.85-10.87v10.87H.59V.59Z"/>
            <path class="cls-3" d="m30.98,22.9c0,1.97-.84,3.7-3.79,3.7h-6.13c-2.96,0-3.79-1.72-3.79-3.7V3.96c0-2.04,1.09-3.37,3.58-3.37h6.57c2.48,0,3.58,1.33,3.58,3.37v18.94Zm-7.92-17.76c-.37,0-.47.18-.47.5v15.86c0,.39.07.54.51.54h2.01c.44,0,.51-.14.51-.54V5.65c0-.32-.11-.5-.47-.5h-2.08Z"/>
            <path class="cls-3" d="m33.94.59h5.29v26.01h-5.29V.59Z"/>
            <path class="cls-3" d="m48.43,21.76h4.96l-.91,4.84h-11.16l5.95-21.17h-5.51l.91-4.84h11.46l-5.69,21.17Z"/>
            <path class="cls-3" d="m56.05.59h10.29l.91,4.84h-5.76v6.17h4.38v4.48h-4.38v5.67h5.55l-.91,4.84h-10.07V.59Z"/>
            <path class="cls-3" d="m69.96.59h10.29l.91,4.84h-5.76v6.17h4.38v4.48h-4.38v5.67h5.55l-.91,4.84h-10.07V.59Z"/>
          </g>
          <g>
            <path class="cls-3" d="m.44.44h5.03l2.7,10.44V.44h5.44v26.01h-5.44l-2.85-10.87v10.87H.44V.44Z"/>
            <path class="cls-3" d="m30.84,22.76c0,1.97-.84,3.7-3.79,3.7h-6.13c-2.96,0-3.79-1.72-3.79-3.7V3.82c0-2.04,1.09-3.37,3.58-3.37h6.57c2.48,0,3.58,1.33,3.58,3.37v18.94Zm-7.92-17.76c-.37,0-.47.18-.47.5v15.86c0,.39.07.54.51.54h2.01c.44,0,.51-.14.51-.54V5.5c0-.32-.11-.5-.47-.5h-2.08Z"/>
            <path class="cls-3" d="m33.79.44h5.29v26.01h-5.29V.44Z"/>
            <path class="cls-3" d="m48.28,21.61h4.96l-.91,4.84h-11.16l5.95-21.17h-5.51l.91-4.84h11.46l-5.69,21.17Z"/>
            <path class="cls-3" d="m55.91.44h10.29l.91,4.84h-5.76v6.17h4.38v4.48h-4.38v5.67h5.55l-.91,4.84h-10.07V.44Z"/>
            <path class="cls-3" d="m69.81.44h10.29l.91,4.84h-5.76v6.17h4.38v4.48h-4.38v5.67h5.55l-.91,4.84h-10.07V.44Z"/>
          </g>
          <g>
            <path class="cls-3" d="m.29.3h5.03l2.7,10.44V.3h5.44v26.01h-5.44l-2.85-10.87v10.87H.29V.3Z"/>
            <path class="cls-3" d="m30.69,22.61c0,1.97-.84,3.7-3.79,3.7h-6.13c-2.96,0-3.79-1.72-3.79-3.7V3.67c0-2.04,1.09-3.37,3.58-3.37h6.57c2.48,0,3.58,1.33,3.58,3.37v18.94Zm-7.92-17.76c-.37,0-.47.18-.47.5v15.86c0,.39.07.54.51.54h2.01c.44,0,.51-.14.51-.54V5.35c0-.32-.11-.5-.47-.5h-2.08Z"/>
            <path class="cls-3" d="m33.65.3h5.29v26.01h-5.29V.3Z"/>
            <path class="cls-3" d="m48.13,21.46h4.96l-.91,4.84h-11.16l5.95-21.17h-5.51l.91-4.84h11.46l-5.69,21.17Z"/>
            <path class="cls-3" d="m55.76.3h10.29l.91,4.84h-5.76v6.17h4.38v4.48h-4.38v5.67h5.55l-.91,4.84h-10.07V.3Z"/>
            <path class="cls-3" d="m69.66.3h10.29l.91,4.84h-5.76v6.17h4.38v4.48h-4.38v5.67h5.55l-.91,4.84h-10.07V.3Z"/>
          </g>
          <g>
            <path class="cls-3" d="m.15.15h5.03l2.7,10.44V.15h5.44v26.01h-5.44l-2.85-10.87v10.87H.15V.15Z"/>
            <path class="cls-3" d="m30.54,22.46c0,1.97-.84,3.7-3.79,3.7h-6.13c-2.96,0-3.79-1.72-3.79-3.7V3.52c0-2.04,1.09-3.37,3.58-3.37h6.57c2.48,0,3.58,1.33,3.58,3.37v18.94Zm-7.92-17.76c-.37,0-.47.18-.47.5v15.86c0,.39.07.54.51.54h2.01c.44,0,.51-.14.51-.54V5.21c0-.32-.11-.5-.47-.5h-2.08Z"/>
            <path class="cls-3" d="m33.5.15h5.29v26.01h-5.29V.15Z"/>
            <path class="cls-3" d="m47.98,21.31h4.96l-.91,4.84h-11.16l5.95-21.17h-5.51l.91-4.84h11.46l-5.69,21.17Z"/>
            <path class="cls-3" d="m55.61.15h10.29l.91,4.84h-5.76v6.17h4.38v4.48h-4.38v5.67h5.55l-.91,4.84h-10.07V.15Z"/>
            <path class="cls-3" d="m69.51.15h10.29l.91,4.84h-5.76v6.17h4.38v4.48h-4.38v5.67h5.55l-.91,4.84h-10.07V.15Z"/>
          </g>
          <g>
            <path class="cls-3" d="m0,0h5.03l2.7,10.44V0h5.44v26.01h-5.44l-2.85-10.87v10.87H0V0Z"/>
            <path class="cls-3" d="m30.39,22.31c0,1.97-.84,3.7-3.79,3.7h-6.13c-2.96,0-3.79-1.72-3.79-3.7V3.37c0-2.04,1.09-3.37,3.58-3.37h6.57c2.48,0,3.58,1.33,3.58,3.37v18.94Zm-7.92-17.76c-.37,0-.47.18-.47.5v15.86c0,.39.07.54.51.54h2.01c.44,0,.51-.14.51-.54V5.06c0-.32-.11-.5-.47-.5h-2.08Z"/>
            <path class="cls-3" d="m33.35,0h5.29v26.01h-5.29V0Z"/>
            <path class="cls-3" d="m47.84,21.17h4.96l-.91,4.84h-11.16l5.95-21.17h-5.51l.91-4.84h11.46l-5.69,21.17Z"/>
            <path class="cls-3" d="m55.46,0h10.29l.91,4.84h-5.76v6.17h4.38v4.48h-4.38v5.67h5.55l-.91,4.84h-10.07V0Z"/>
            <path class="cls-3" d="m69.37,0h10.29l.91,4.84h-5.76v6.17h4.38v4.48h-4.38v5.67h5.55l-.91,4.84h-10.07V0Z"/>
          </g>
        </g>
        <g>
          <path class="cls-2" d="m0,0h5.03l2.7,10.44V0h5.44v26.01h-5.44l-2.85-10.87v10.87H0V0Z"/>
          <path class="cls-2" d="m30.39,22.31c0,1.97-.84,3.7-3.79,3.7h-6.13c-2.96,0-3.79-1.72-3.79-3.7V3.37c0-2.04,1.09-3.37,3.58-3.37h6.57c2.48,0,3.58,1.33,3.58,3.37v18.94Zm-7.92-17.76c-.37,0-.47.18-.47.5v15.86c0,.39.07.54.51.54h2.01c.44,0,.51-.14.51-.54V5.06c0-.32-.11-.5-.47-.5h-2.08Z"/>
          <path class="cls-2" d="m33.35,0h5.29v26.01h-5.29V0Z"/>
          <path class="cls-2" d="m47.84,21.17h4.96l-.91,4.84h-11.16l5.95-21.17h-5.51l.91-4.84h11.46l-5.69,21.17Z"/>
          <path class="cls-2" d="m55.46,0h10.29l.91,4.84h-5.76v6.17h4.38v4.48h-4.38v5.67h5.55l-.91,4.84h-10.07V0Z"/>
          <path class="cls-2" d="m69.37,0h10.29l.91,4.84h-5.76v6.17h4.38v4.48h-4.38v5.67h5.55l-.91,4.84h-10.07V0Z"/>
        </g>
      </g>
      <g>
        <g>
          <g>
            <path class="cls-1" d="m1.06,32.05h5.37l.48,2.53h-3.01v3.22h2.29v2.34h-2.29v5.49H1.06v-13.57Z"/>
            <path class="cls-1" d="m15.57,43.7c0,1.03-.44,1.93-1.98,1.93h-3.2c-1.54,0-1.98-.9-1.98-1.93v-9.88c0-1.07.57-1.76,1.87-1.76h3.43c1.29,0,1.87.69,1.87,1.76v9.88Zm-4.13-9.27c-.19,0-.25.09-.25.26v8.28c0,.21.04.28.27.28h1.05c.23,0,.27-.08.27-.28v-8.28c0-.17-.06-.26-.25-.26h-1.08Z"/>
            <path class="cls-1" d="m24.51,40.1c0,.6-.44,1.2-1.24,1.2l1.45,4.33h-2.86l-1.33-4.33h-.36v4.33h-2.76v-13.57h5.24c1.29,0,1.87.69,1.87,1.76v6.29Zm-4.34-5.67v4.68h1.35c.21,0,.27-.07.27-.28v-4.12c0-.17-.08-.28-.27-.28h-1.35Z"/>
            <path class="cls-1" d="m32.09,43.94l-.25,1.68h-2.78l2.5-13.57h2.95l2.49,13.57h-2.78l-.25-1.68h-1.88Zm.3-2.15h1.28l-.63-4.81-.65,4.81Z"/>
            <path class="cls-1" d="m45.55,40.1c0,.6-.44,1.2-1.24,1.2l1.45,4.33h-2.86l-1.33-4.33h-.36v4.33h-2.76v-13.57h5.24c1.29,0,1.87.69,1.87,1.76v6.29Zm-4.34-5.67v4.68h1.35c.21,0,.27-.07.27-.28v-4.12c0-.17-.08-.28-.27-.28h-1.35Z"/>
            <path class="cls-1" d="m52.83,32.05l.69,2.53h-1.85v11.05h-2.82v-11.05h-1.85l.72-2.53h5.1Z"/>
            <path class="cls-1" d="m54.96,32.05h2.76v13.57h-2.76v-13.57Z"/>
            <path class="cls-1" d="m60.24,45.63l-.5-2.53h2.97c.25,0,.32-.08.32-.28v-2.47c0-.38-.13-.39-.51-.39h-1.43c-.82,0-1.54-.19-1.54-1.54v-4.61c0-1.07.57-1.76,1.87-1.76h3.81l.48,2.53h-3.12c-.23,0-.34.09-.34.3v2.47c0,.28.13.36.42.36h1.73c.88,0,1.37.38,1.37,1.39v4.47c0,1.5-.53,2.06-2.11,2.06h-3.41Z"/>
            <path class="cls-1" d="m72.85,32.05l.69,2.53h-1.85v11.05h-2.82v-11.05h-1.85l.72-2.53h5.1Z"/>
            <path class="cls-1" d="m75.63,45.63l-.5-2.53h2.97c.25,0,.32-.08.32-.28v-2.47c0-.38-.13-.39-.51-.39h-1.43c-.82,0-1.54-.19-1.54-1.54v-4.61c0-1.07.57-1.76,1.87-1.76h3.81l.48,2.53h-3.12c-.23,0-.34.09-.34.3v2.47c0,.28.13.36.42.36h1.73c.88,0,1.37.38,1.37,1.39v4.47c0,1.5-.53,2.06-2.11,2.06h-3.41Z"/>
          </g>
          <g>
            <path class="cls-1" d="m.98,31.97h5.37l.48,2.53h-3.01v3.22h2.29v2.34h-2.29v5.49H.98v-13.57Z"/>
            <path class="cls-1" d="m15.5,43.62c0,1.03-.44,1.93-1.98,1.93h-3.2c-1.54,0-1.98-.9-1.98-1.93v-9.88c0-1.07.57-1.76,1.87-1.76h3.43c1.29,0,1.87.69,1.87,1.76v9.88Zm-4.13-9.27c-.19,0-.25.09-.25.26v8.28c0,.21.04.28.27.28h1.05c.23,0,.27-.08.27-.28v-8.28c0-.17-.06-.26-.25-.26h-1.08Z"/>
            <path class="cls-1" d="m24.43,40.03c0,.6-.44,1.2-1.24,1.2l1.45,4.33h-2.86l-1.33-4.33h-.36v4.33h-2.76v-13.57h5.24c1.29,0,1.87.69,1.87,1.76v6.29Zm-4.34-5.67v4.68h1.35c.21,0,.27-.07.27-.28v-4.12c0-.17-.08-.28-.27-.28h-1.35Z"/>
            <path class="cls-1" d="m32.01,43.86l-.25,1.68h-2.78l2.5-13.57h2.95l2.49,13.57h-2.78l-.25-1.68h-1.88Zm.3-2.15h1.28l-.63-4.81-.65,4.81Z"/>
            <path class="cls-1" d="m45.48,40.03c0,.6-.44,1.2-1.24,1.2l1.45,4.33h-2.86l-1.33-4.33h-.36v4.33h-2.76v-13.57h5.24c1.29,0,1.87.69,1.87,1.76v6.29Zm-4.34-5.67v4.68h1.35c.21,0,.27-.07.27-.28v-4.12c0-.17-.08-.28-.27-.28h-1.35Z"/>
            <path class="cls-1" d="m52.75,31.97l.69,2.53h-1.85v11.05h-2.82v-11.05h-1.85l.72-2.53h5.1Z"/>
            <path class="cls-1" d="m54.89,31.97h2.76v13.57h-2.76v-13.57Z"/>
            <path class="cls-1" d="m60.16,45.55l-.5-2.53h2.97c.25,0,.32-.08.32-.28v-2.47c0-.38-.13-.39-.51-.39h-1.43c-.82,0-1.54-.19-1.54-1.54v-4.61c0-1.07.57-1.76,1.87-1.76h3.81l.48,2.53h-3.12c-.23,0-.34.09-.34.3v2.47c0,.28.13.36.42.36h1.73c.88,0,1.37.38,1.37,1.39v4.47c0,1.5-.53,2.06-2.11,2.06h-3.41Z"/>
            <path class="cls-1" d="m72.77,31.97l.69,2.53h-1.85v11.05h-2.82v-11.05h-1.85l.72-2.53h5.1Z"/>
            <path class="cls-1" d="m75.55,45.55l-.5-2.53h2.97c.25,0,.32-.08.32-.28v-2.47c0-.38-.13-.39-.51-.39h-1.43c-.82,0-1.54-.19-1.54-1.54v-4.61c0-1.07.57-1.76,1.87-1.76h3.81l.48,2.53h-3.12c-.23,0-.34.09-.34.3v2.47c0,.28.13.36.42.36h1.73c.88,0,1.37.38,1.37,1.39v4.47c0,1.5-.53,2.06-2.11,2.06h-3.41Z"/>
          </g>
          <g>
            <path class="cls-1" d="m.91,31.9h5.37l.48,2.53h-3.01v3.22h2.29v2.34h-2.29v5.49H.91v-13.57Z"/>
            <path class="cls-1" d="m15.42,43.54c0,1.03-.44,1.93-1.98,1.93h-3.2c-1.54,0-1.98-.9-1.98-1.93v-9.88c0-1.07.57-1.76,1.87-1.76h3.43c1.29,0,1.87.69,1.87,1.76v9.88Zm-4.13-9.27c-.19,0-.25.09-.25.26v8.28c0,.21.04.28.27.28h1.05c.23,0,.27-.08.27-.28v-8.28c0-.17-.06-.26-.25-.26h-1.08Z"/>
            <path class="cls-1" d="m24.35,39.95c0,.6-.44,1.2-1.24,1.2l1.45,4.33h-2.86l-1.33-4.33h-.36v4.33h-2.76v-13.57h5.24c1.29,0,1.87.69,1.87,1.76v6.29Zm-4.34-5.67v4.68h1.35c.21,0,.27-.07.27-.28v-4.12c0-.17-.08-.28-.27-.28h-1.35Z"/>
            <path class="cls-1" d="m31.93,43.79l-.25,1.68h-2.78l2.5-13.57h2.95l2.49,13.57h-2.78l-.25-1.68h-1.88Zm.3-2.15h1.28l-.63-4.81-.65,4.81Z"/>
            <path class="cls-1" d="m45.4,39.95c0,.6-.44,1.2-1.24,1.2l1.45,4.33h-2.86l-1.33-4.33h-.36v4.33h-2.76v-13.57h5.24c1.29,0,1.87.69,1.87,1.76v6.29Zm-4.34-5.67v4.68h1.35c.21,0,.27-.07.27-.28v-4.12c0-.17-.08-.28-.27-.28h-1.35Z"/>
            <path class="cls-1" d="m52.67,31.9l.69,2.53h-1.85v11.05h-2.82v-11.05h-1.85l.72-2.53h5.1Z"/>
            <path class="cls-1" d="m54.81,31.9h2.76v13.57h-2.76v-13.57Z"/>
            <path class="cls-1" d="m60.08,45.47l-.5-2.53h2.97c.25,0,.32-.08.32-.28v-2.47c0-.38-.13-.39-.51-.39h-1.43c-.82,0-1.54-.19-1.54-1.54v-4.61c0-1.07.57-1.76,1.87-1.76h3.81l.48,2.53h-3.12c-.23,0-.34.09-.34.3v2.47c0,.28.13.36.42.36h1.73c.88,0,1.37.38,1.37,1.39v4.47c0,1.5-.53,2.06-2.11,2.06h-3.41Z"/>
            <path class="cls-1" d="m72.69,31.9l.69,2.53h-1.85v11.05h-2.82v-11.05h-1.85l.72-2.53h5.1Z"/>
            <path class="cls-1" d="m75.47,45.47l-.5-2.53h2.97c.25,0,.32-.08.32-.28v-2.47c0-.38-.13-.39-.51-.39h-1.43c-.82,0-1.54-.19-1.54-1.54v-4.61c0-1.07.57-1.76,1.87-1.76h3.81l.48,2.53h-3.12c-.23,0-.34.09-.34.3v2.47c0,.28.13.36.42.36h1.73c.88,0,1.37.38,1.37,1.39v4.47c0,1.5-.53,2.06-2.11,2.06h-3.41Z"/>
          </g>
          <g>
            <path class="cls-1" d="m.83,31.82h5.37l.48,2.53h-3.01v3.22h2.29v2.34h-2.29v5.49H.83v-13.57Z"/>
            <path class="cls-1" d="m15.34,43.47c0,1.03-.44,1.93-1.98,1.93h-3.2c-1.54,0-1.98-.9-1.98-1.93v-9.88c0-1.07.57-1.76,1.87-1.76h3.43c1.29,0,1.87.69,1.87,1.76v9.88Zm-4.13-9.27c-.19,0-.25.09-.25.26v8.28c0,.21.04.28.27.28h1.05c.23,0,.27-.08.27-.28v-8.28c0-.17-.06-.26-.25-.26h-1.08Z"/>
            <path class="cls-1" d="m24.27,39.87c0,.6-.44,1.2-1.24,1.2l1.45,4.33h-2.86l-1.33-4.33h-.36v4.33h-2.76v-13.57h5.24c1.29,0,1.87.69,1.87,1.76v6.29Zm-4.34-5.67v4.68h1.35c.21,0,.27-.07.27-.28v-4.12c0-.17-.08-.28-.27-.28h-1.35Z"/>
            <path class="cls-1" d="m31.86,43.71l-.25,1.68h-2.78l2.5-13.57h2.95l2.49,13.57h-2.78l-.25-1.68h-1.88Zm.3-2.15h1.28l-.63-4.81-.65,4.81Z"/>
            <path class="cls-1" d="m45.32,39.87c0,.6-.44,1.2-1.24,1.2l1.45,4.33h-2.86l-1.33-4.33h-.36v4.33h-2.76v-13.57h5.24c1.29,0,1.87.69,1.87,1.76v6.29Zm-4.34-5.67v4.68h1.35c.21,0,.27-.07.27-.28v-4.12c0-.17-.08-.28-.27-.28h-1.35Z"/>
            <path class="cls-1" d="m52.6,31.82l.69,2.53h-1.85v11.05h-2.82v-11.05h-1.85l.72-2.53h5.1Z"/>
            <path class="cls-1" d="m54.73,31.82h2.76v13.57h-2.76v-13.57Z"/>
            <path class="cls-1" d="m60.01,45.39l-.5-2.53h2.97c.25,0,.32-.08.32-.28v-2.47c0-.38-.13-.39-.51-.39h-1.43c-.82,0-1.54-.19-1.54-1.54v-4.61c0-1.07.57-1.76,1.87-1.76h3.81l.48,2.53h-3.12c-.23,0-.34.09-.34.3v2.47c0,.28.13.36.42.36h1.73c.88,0,1.37.38,1.37,1.39v4.47c0,1.5-.53,2.06-2.11,2.06h-3.41Z"/>
            <path class="cls-1" d="m72.62,31.82l.69,2.53h-1.85v11.05h-2.82v-11.05h-1.85l.72-2.53h5.1Z"/>
            <path class="cls-1" d="m75.4,45.39l-.5-2.53h2.97c.25,0,.32-.08.32-.28v-2.47c0-.38-.13-.39-.51-.39h-1.43c-.82,0-1.54-.19-1.54-1.54v-4.61c0-1.07.57-1.76,1.87-1.76h3.81l.48,2.53h-3.12c-.23,0-.34.09-.34.3v2.47c0,.28.13.36.42.36h1.73c.88,0,1.37.38,1.37,1.39v4.47c0,1.5-.53,2.06-2.11,2.06h-3.41Z"/>
          </g>
          <g>
            <path class="cls-1" d="m.75,31.74h5.37l.48,2.53h-3.01v3.22h2.29v2.34h-2.29v5.49H.75v-13.57Z"/>
            <path class="cls-1" d="m15.26,43.39c0,1.03-.44,1.93-1.98,1.93h-3.2c-1.54,0-1.98-.9-1.98-1.93v-9.88c0-1.07.57-1.76,1.87-1.76h3.43c1.29,0,1.87.69,1.87,1.76v9.88Zm-4.13-9.27c-.19,0-.25.09-.25.26v8.28c0,.21.04.28.27.28h1.05c.23,0,.27-.08.27-.28v-8.28c0-.17-.06-.26-.25-.26h-1.08Z"/>
            <path class="cls-1" d="m24.2,39.79c0,.6-.44,1.2-1.24,1.2l1.45,4.33h-2.86l-1.33-4.33h-.36v4.33h-2.76v-13.57h5.24c1.29,0,1.87.69,1.87,1.76v6.29Zm-4.34-5.67v4.68h1.35c.21,0,.27-.07.27-.28v-4.12c0-.17-.08-.28-.27-.28h-1.35Z"/>
            <path class="cls-1" d="m31.78,43.63l-.25,1.68h-2.78l2.5-13.57h2.95l2.49,13.57h-2.78l-.25-1.68h-1.88Zm.3-2.15h1.28l-.63-4.81-.65,4.81Z"/>
            <path class="cls-1" d="m45.24,39.79c0,.6-.44,1.2-1.24,1.2l1.45,4.33h-2.86l-1.33-4.33h-.36v4.33h-2.76v-13.57h5.24c1.29,0,1.87.69,1.87,1.76v6.29Zm-4.34-5.67v4.68h1.35c.21,0,.27-.07.27-.28v-4.12c0-.17-.08-.28-.27-.28h-1.35Z"/>
            <path class="cls-1" d="m52.52,31.74l.69,2.53h-1.85v11.05h-2.82v-11.05h-1.85l.72-2.53h5.1Z"/>
            <path class="cls-1" d="m54.65,31.74h2.76v13.57h-2.76v-13.57Z"/>
            <path class="cls-1" d="m59.93,45.32l-.5-2.53h2.97c.25,0,.32-.08.32-.28v-2.47c0-.38-.13-.39-.51-.39h-1.43c-.82,0-1.54-.19-1.54-1.54v-4.61c0-1.07.57-1.76,1.87-1.76h3.81l.48,2.53h-3.12c-.23,0-.34.09-.34.3v2.47c0,.28.13.36.42.36h1.73c.88,0,1.37.38,1.37,1.39v4.47c0,1.5-.53,2.06-2.11,2.06h-3.41Z"/>
            <path class="cls-1" d="m72.54,31.74l.69,2.53h-1.85v11.05h-2.82v-11.05h-1.85l.72-2.53h5.1Z"/>
            <path class="cls-1" d="m75.32,45.32l-.5-2.53h2.97c.25,0,.32-.08.32-.28v-2.47c0-.38-.13-.39-.51-.39h-1.43c-.82,0-1.54-.19-1.54-1.54v-4.61c0-1.07.57-1.76,1.87-1.76h3.81l.48,2.53h-3.12c-.23,0-.34.09-.34.3v2.47c0,.28.13.36.42.36h1.73c.88,0,1.37.38,1.37,1.39v4.47c0,1.5-.53,2.06-2.11,2.06h-3.41Z"/>
          </g>
          <g>
            <path class="cls-1" d="m.68,31.67h5.37l.48,2.53h-3.01v3.22h2.29v2.34h-2.29v5.49H.68v-13.57Z"/>
            <path class="cls-1" d="m15.19,43.31c0,1.03-.44,1.93-1.98,1.93h-3.2c-1.54,0-1.98-.9-1.98-1.93v-9.88c0-1.07.57-1.76,1.87-1.76h3.43c1.29,0,1.87.69,1.87,1.76v9.88Zm-4.13-9.27c-.19,0-.25.09-.25.26v8.28c0,.21.04.28.27.28h1.05c.23,0,.27-.08.27-.28v-8.28c0-.17-.06-.26-.25-.26h-1.08Z"/>
            <path class="cls-1" d="m24.12,39.72c0,.6-.44,1.2-1.24,1.2l1.45,4.33h-2.86l-1.33-4.33h-.36v4.33h-2.76v-13.57h5.24c1.29,0,1.87.69,1.87,1.76v6.29Zm-4.34-5.67v4.68h1.35c.21,0,.27-.07.27-.28v-4.12c0-.17-.08-.28-.27-.28h-1.35Z"/>
            <path class="cls-1" d="m31.7,43.56l-.25,1.68h-2.78l2.5-13.57h2.95l2.49,13.57h-2.78l-.25-1.68h-1.88Zm.3-2.15h1.28l-.63-4.81-.65,4.81Z"/>
            <path class="cls-1" d="m45.17,39.72c0,.6-.44,1.2-1.24,1.2l1.45,4.33h-2.86l-1.33-4.33h-.36v4.33h-2.76v-13.57h5.24c1.29,0,1.87.69,1.87,1.76v6.29Zm-4.34-5.67v4.68h1.35c.21,0,.27-.07.27-.28v-4.12c0-.17-.08-.28-.27-.28h-1.35Z"/>
            <path class="cls-1" d="m52.44,31.67l.69,2.53h-1.85v11.05h-2.82v-11.05h-1.85l.72-2.53h5.1Z"/>
            <path class="cls-1" d="m54.58,31.67h2.76v13.57h-2.76v-13.57Z"/>
            <path class="cls-1" d="m59.85,45.24l-.5-2.53h2.97c.25,0,.32-.08.32-.28v-2.47c0-.38-.13-.39-.51-.39h-1.43c-.82,0-1.54-.19-1.54-1.54v-4.61c0-1.07.57-1.76,1.87-1.76h3.81l.48,2.53h-3.12c-.23,0-.34.09-.34.3v2.47c0,.28.13.36.42.36h1.73c.88,0,1.37.38,1.37,1.39v4.47c0,1.5-.53,2.06-2.11,2.06h-3.41Z"/>
            <path class="cls-1" d="m72.46,31.67l.69,2.53h-1.85v11.05h-2.82v-11.05h-1.85l.72-2.53h5.1Z"/>
            <path class="cls-1" d="m75.24,45.24l-.5-2.53h2.97c.25,0,.32-.08.32-.28v-2.47c0-.38-.13-.39-.51-.39h-1.43c-.82,0-1.54-.19-1.54-1.54v-4.61c0-1.07.57-1.76,1.87-1.76h3.81l.48,2.53h-3.12c-.23,0-.34.09-.34.3v2.47c0,.28.13.36.42.36h1.73c.88,0,1.37.38,1.37,1.39v4.47c0,1.5-.53,2.06-2.11,2.06h-3.41Z"/>
          </g>
          <g>
            <path class="cls-1" d="m.6,31.59h5.37l.48,2.53h-3.01v3.22h2.29v2.34h-2.29v5.49H.6v-13.57Z"/>
            <path class="cls-1" d="m15.11,43.23c0,1.03-.44,1.93-1.98,1.93h-3.2c-1.54,0-1.98-.9-1.98-1.93v-9.88c0-1.07.57-1.76,1.87-1.76h3.43c1.29,0,1.87.69,1.87,1.76v9.88Zm-4.13-9.27c-.19,0-.25.09-.25.26v8.28c0,.21.04.28.27.28h1.05c.23,0,.27-.08.27-.28v-8.28c0-.17-.06-.26-.25-.26h-1.08Z"/>
            <path class="cls-1" d="m24.04,39.64c0,.6-.44,1.2-1.24,1.2l1.45,4.33h-2.86l-1.33-4.33h-.36v4.33h-2.76v-13.57h5.24c1.29,0,1.87.69,1.87,1.76v6.29Zm-4.34-5.67v4.68h1.35c.21,0,.27-.07.27-.28v-4.12c0-.17-.08-.28-.27-.28h-1.35Z"/>
            <path class="cls-1" d="m31.62,43.48l-.25,1.68h-2.78l2.5-13.57h2.95l2.49,13.57h-2.78l-.25-1.68h-1.88Zm.3-2.15h1.28l-.63-4.81-.65,4.81Z"/>
            <path class="cls-1" d="m45.09,39.64c0,.6-.44,1.2-1.24,1.2l1.45,4.33h-2.86l-1.33-4.33h-.36v4.33h-2.76v-13.57h5.24c1.29,0,1.87.69,1.87,1.76v6.29Zm-4.34-5.67v4.68h1.35c.21,0,.27-.07.27-.28v-4.12c0-.17-.08-.28-.27-.28h-1.35Z"/>
            <path class="cls-1" d="m52.37,31.59l.69,2.53h-1.85v11.05h-2.82v-11.05h-1.85l.72-2.53h5.1Z"/>
            <path class="cls-1" d="m54.5,31.59h2.76v13.57h-2.76v-13.57Z"/>
            <path class="cls-1" d="m59.78,45.16l-.5-2.53h2.97c.25,0,.32-.08.32-.28v-2.47c0-.38-.13-.39-.51-.39h-1.43c-.82,0-1.54-.19-1.54-1.54v-4.61c0-1.07.57-1.76,1.87-1.76h3.81l.48,2.53h-3.12c-.23,0-.34.09-.34.3v2.47c0,.28.13.36.42.36h1.73c.88,0,1.37.38,1.37,1.39v4.47c0,1.5-.53,2.06-2.11,2.06h-3.41Z"/>
            <path class="cls-1" d="m72.38,31.59l.69,2.53h-1.85v11.05h-2.82v-11.05h-1.85l.72-2.53h5.1Z"/>
            <path class="cls-1" d="m75.17,45.16l-.5-2.53h2.97c.25,0,.32-.08.32-.28v-2.47c0-.38-.13-.39-.51-.39h-1.43c-.82,0-1.54-.19-1.54-1.54v-4.61c0-1.07.57-1.76,1.87-1.76h3.81l.48,2.53h-3.12c-.23,0-.34.09-.34.3v2.47c0,.28.13.36.42.36h1.73c.88,0,1.37.38,1.37,1.39v4.47c0,1.5-.53,2.06-2.11,2.06h-3.41Z"/>
          </g>
          <g>
            <path class="cls-1" d="m.52,31.51h5.37l.48,2.53h-3.01v3.22h2.29v2.34h-2.29v5.49H.52v-13.57Z"/>
            <path class="cls-1" d="m15.03,43.16c0,1.03-.44,1.93-1.98,1.93h-3.2c-1.54,0-1.98-.9-1.98-1.93v-9.88c0-1.07.57-1.76,1.87-1.76h3.43c1.29,0,1.87.69,1.87,1.76v9.88Zm-4.13-9.27c-.19,0-.25.09-.25.26v8.28c0,.21.04.28.27.28h1.05c.23,0,.27-.08.27-.28v-8.28c0-.17-.06-.26-.25-.26h-1.08Z"/>
            <path class="cls-1" d="m23.97,39.56c0,.6-.44,1.2-1.24,1.2l1.45,4.33h-2.86l-1.33-4.33h-.36v4.33h-2.76v-13.57h5.24c1.29,0,1.87.69,1.87,1.76v6.29Zm-4.34-5.67v4.68h1.35c.21,0,.27-.07.27-.28v-4.12c0-.17-.08-.28-.27-.28h-1.35Z"/>
            <path class="cls-1" d="m31.55,43.4l-.25,1.68h-2.78l2.5-13.57h2.95l2.49,13.57h-2.78l-.25-1.68h-1.88Zm.3-2.15h1.28l-.63-4.81-.65,4.81Z"/>
            <path class="cls-1" d="m45.01,39.56c0,.6-.44,1.2-1.24,1.2l1.45,4.33h-2.86l-1.33-4.33h-.36v4.33h-2.76v-13.57h5.24c1.29,0,1.87.69,1.87,1.76v6.29Zm-4.34-5.67v4.68h1.35c.21,0,.27-.07.27-.28v-4.12c0-.17-.08-.28-.27-.28h-1.35Z"/>
            <path class="cls-1" d="m52.29,31.51l.69,2.53h-1.85v11.05h-2.82v-11.05h-1.85l.72-2.53h5.1Z"/>
            <path class="cls-1" d="m54.42,31.51h2.76v13.57h-2.76v-13.57Z"/>
            <path class="cls-1" d="m59.7,45.09l-.5-2.53h2.97c.25,0,.32-.08.32-.28v-2.47c0-.38-.13-.39-.51-.39h-1.43c-.82,0-1.54-.19-1.54-1.54v-4.61c0-1.07.57-1.76,1.87-1.76h3.81l.48,2.53h-3.12c-.23,0-.34.09-.34.3v2.47c0,.28.13.36.42.36h1.73c.88,0,1.37.38,1.37,1.39v4.47c0,1.5-.53,2.06-2.11,2.06h-3.41Z"/>
            <path class="cls-1" d="m72.31,31.51l.69,2.53h-1.85v11.05h-2.82v-11.05h-1.85l.72-2.53h5.1Z"/>
            <path class="cls-1" d="m75.09,45.09l-.5-2.53h2.97c.25,0,.32-.08.32-.28v-2.47c0-.38-.13-.39-.51-.39h-1.43c-.82,0-1.54-.19-1.54-1.54v-4.61c0-1.07.57-1.76,1.87-1.76h3.81l.48,2.53h-3.12c-.23,0-.34.09-.34.3v2.47c0,.28.13.36.42.36h1.73c.88,0,1.37.38,1.37,1.39v4.47c0,1.5-.53,2.06-2.11,2.06h-3.41Z"/>
          </g>
          <g>
            <path class="cls-1" d="m.45,31.43h5.37l.48,2.53h-3.01v3.22h2.29v2.34h-2.29v5.49H.45v-13.57Z"/>
            <path class="cls-1" d="m14.96,43.08c0,1.03-.44,1.93-1.98,1.93h-3.2c-1.54,0-1.98-.9-1.98-1.93v-9.88c0-1.07.57-1.76,1.87-1.76h3.43c1.29,0,1.87.69,1.87,1.76v9.88Zm-4.13-9.27c-.19,0-.25.09-.25.26v8.28c0,.21.04.28.27.28h1.05c.23,0,.27-.08.27-.28v-8.28c0-.17-.06-.26-.25-.26h-1.08Z"/>
            <path class="cls-1" d="m23.89,39.49c0,.6-.44,1.2-1.24,1.2l1.45,4.33h-2.86l-1.33-4.33h-.36v4.33h-2.76v-13.57h5.24c1.29,0,1.87.69,1.87,1.76v6.29Zm-4.34-5.67v4.68h1.35c.21,0,.27-.07.27-.28v-4.12c0-.17-.08-.28-.27-.28h-1.35Z"/>
            <path class="cls-1" d="m31.47,43.32l-.25,1.68h-2.78l2.5-13.57h2.95l2.49,13.57h-2.78l-.25-1.68h-1.88Zm.3-2.15h1.28l-.63-4.81-.65,4.81Z"/>
            <path class="cls-1" d="m44.94,39.49c0,.6-.44,1.2-1.24,1.2l1.45,4.33h-2.86l-1.33-4.33h-.36v4.33h-2.76v-13.57h5.24c1.29,0,1.87.69,1.87,1.76v6.29Zm-4.34-5.67v4.68h1.35c.21,0,.27-.07.27-.28v-4.12c0-.17-.08-.28-.27-.28h-1.35Z"/>
            <path class="cls-1" d="m52.21,31.43l.69,2.53h-1.85v11.05h-2.82v-11.05h-1.85l.72-2.53h5.1Z"/>
            <path class="cls-1" d="m54.35,31.43h2.76v13.57h-2.76v-13.57Z"/>
            <path class="cls-1" d="m59.62,45.01l-.5-2.53h2.97c.25,0,.32-.08.32-.28v-2.47c0-.38-.13-.39-.51-.39h-1.43c-.82,0-1.54-.19-1.54-1.54v-4.61c0-1.07.57-1.76,1.87-1.76h3.81l.48,2.53h-3.12c-.23,0-.34.09-.34.3v2.47c0,.28.13.36.42.36h1.73c.88,0,1.37.38,1.37,1.39v4.47c0,1.5-.53,2.06-2.11,2.06h-3.41Z"/>
            <path class="cls-1" d="m72.23,31.43l.69,2.53h-1.85v11.05h-2.82v-11.05h-1.85l.72-2.53h5.1Z"/>
            <path class="cls-1" d="m75.01,45.01l-.5-2.53h2.97c.25,0,.32-.08.32-.28v-2.47c0-.38-.13-.39-.51-.39h-1.43c-.82,0-1.54-.19-1.54-1.54v-4.61c0-1.07.57-1.76,1.87-1.76h3.81l.48,2.53h-3.12c-.23,0-.34.09-.34.3v2.47c0,.28.13.36.42.36h1.73c.88,0,1.37.38,1.37,1.39v4.47c0,1.5-.53,2.06-2.11,2.06h-3.41Z"/>
          </g>
          <g>
            <path class="cls-1" d="m.37,31.36h5.37l.48,2.53h-3.01v3.22h2.29v2.34h-2.29v5.49H.37v-13.57Z"/>
            <path class="cls-1" d="m14.88,43c0,1.03-.44,1.93-1.98,1.93h-3.2c-1.54,0-1.98-.9-1.98-1.93v-9.88c0-1.07.57-1.76,1.87-1.76h3.43c1.29,0,1.87.69,1.87,1.76v9.88Zm-4.13-9.27c-.19,0-.25.09-.25.26v8.28c0,.21.04.28.27.28h1.05c.23,0,.27-.08.27-.28v-8.28c0-.17-.06-.26-.25-.26h-1.08Z"/>
            <path class="cls-1" d="m23.81,39.41c0,.6-.44,1.2-1.24,1.2l1.45,4.33h-2.86l-1.33-4.33h-.36v4.33h-2.76v-13.57h5.24c1.29,0,1.87.69,1.87,1.76v6.29Zm-4.34-5.67v4.68h1.35c.21,0,.27-.07.27-.28v-4.12c0-.17-.08-.28-.27-.28h-1.35Z"/>
            <path class="cls-1" d="m31.39,43.25l-.25,1.68h-2.78l2.5-13.57h2.95l2.49,13.57h-2.78l-.25-1.68h-1.88Zm.3-2.15h1.28l-.63-4.81-.65,4.81Z"/>
            <path class="cls-1" d="m44.86,39.41c0,.6-.44,1.2-1.24,1.2l1.45,4.33h-2.86l-1.33-4.33h-.36v4.33h-2.76v-13.57h5.24c1.29,0,1.87.69,1.87,1.76v6.29Zm-4.34-5.67v4.68h1.35c.21,0,.27-.07.27-.28v-4.12c0-.17-.08-.28-.27-.28h-1.35Z"/>
            <path class="cls-1" d="m52.14,31.36l.69,2.53h-1.85v11.05h-2.82v-11.05h-1.85l.72-2.53h5.1Z"/>
            <path class="cls-1" d="m54.27,31.36h2.76v13.57h-2.76v-13.57Z"/>
            <path class="cls-1" d="m59.54,44.93l-.5-2.53h2.97c.25,0,.32-.08.32-.28v-2.47c0-.38-.13-.39-.51-.39h-1.43c-.82,0-1.54-.19-1.54-1.54v-4.61c0-1.07.57-1.76,1.87-1.76h3.81l.48,2.53h-3.12c-.23,0-.34.09-.34.3v2.47c0,.28.13.36.42.36h1.73c.88,0,1.37.38,1.37,1.39v4.47c0,1.5-.53,2.06-2.11,2.06h-3.41Z"/>
            <path class="cls-1" d="m72.15,31.36l.69,2.53h-1.85v11.05h-2.82v-11.05h-1.85l.72-2.53h5.1Z"/>
            <path class="cls-1" d="m74.93,44.93l-.5-2.53h2.97c.25,0,.32-.08.32-.28v-2.47c0-.38-.13-.39-.51-.39h-1.43c-.82,0-1.54-.19-1.54-1.54v-4.61c0-1.07.57-1.76,1.87-1.76h3.81l.48,2.53h-3.12c-.23,0-.34.09-.34.3v2.47c0,.28.13.36.42.36h1.73c.88,0,1.37.38,1.37,1.39v4.47c0,1.5-.53,2.06-2.11,2.06h-3.41Z"/>
          </g>
          <g>
            <path class="cls-1" d="m.29,31.28h5.37l.48,2.53h-3.01v3.22h2.29v2.34h-2.29v5.49H.29v-13.57Z"/>
            <path class="cls-1" d="m14.8,42.93c0,1.03-.44,1.93-1.98,1.93h-3.2c-1.54,0-1.98-.9-1.98-1.93v-9.88c0-1.07.57-1.76,1.87-1.76h3.43c1.29,0,1.87.69,1.87,1.76v9.88Zm-4.13-9.27c-.19,0-.25.09-.25.26v8.28c0,.21.04.28.27.28h1.05c.23,0,.27-.08.27-.28v-8.28c0-.17-.06-.26-.25-.26h-1.08Z"/>
            <path class="cls-1" d="m23.74,39.33c0,.6-.44,1.2-1.24,1.2l1.45,4.33h-2.86l-1.33-4.33h-.36v4.33h-2.76v-13.57h5.24c1.29,0,1.87.69,1.87,1.76v6.29Zm-4.34-5.67v4.68h1.35c.21,0,.27-.07.27-.28v-4.12c0-.17-.08-.28-.27-.28h-1.35Z"/>
            <path class="cls-1" d="m31.32,43.17l-.25,1.68h-2.78l2.5-13.57h2.95l2.49,13.57h-2.78l-.25-1.68h-1.88Zm.3-2.15h1.28l-.63-4.81-.65,4.81Z"/>
            <path class="cls-1" d="m44.78,39.33c0,.6-.44,1.2-1.24,1.2l1.45,4.33h-2.86l-1.33-4.33h-.36v4.33h-2.76v-13.57h5.24c1.29,0,1.87.69,1.87,1.76v6.29Zm-4.34-5.67v4.68h1.35c.21,0,.27-.07.27-.28v-4.12c0-.17-.08-.28-.27-.28h-1.35Z"/>
            <path class="cls-1" d="m52.06,31.28l.69,2.53h-1.85v11.05h-2.82v-11.05h-1.85l.72-2.53h5.1Z"/>
            <path class="cls-1" d="m54.19,31.28h2.76v13.57h-2.76v-13.57Z"/>
            <path class="cls-1" d="m59.47,44.85l-.5-2.53h2.97c.25,0,.32-.08.32-.28v-2.47c0-.38-.13-.39-.51-.39h-1.43c-.82,0-1.54-.19-1.54-1.54v-4.61c0-1.07.57-1.76,1.87-1.76h3.81l.48,2.53h-3.12c-.23,0-.34.09-.34.3v2.47c0,.28.13.36.42.36h1.73c.88,0,1.37.38,1.37,1.39v4.47c0,1.5-.53,2.06-2.11,2.06h-3.41Z"/>
            <path class="cls-1" d="m72.08,31.28l.69,2.53h-1.85v11.05h-2.82v-11.05h-1.85l.72-2.53h5.1Z"/>
            <path class="cls-1" d="m74.86,44.85l-.5-2.53h2.97c.25,0,.32-.08.32-.28v-2.47c0-.38-.13-.39-.51-.39h-1.43c-.82,0-1.54-.19-1.54-1.54v-4.61c0-1.07.57-1.76,1.87-1.76h3.81l.48,2.53h-3.12c-.23,0-.34.09-.34.3v2.47c0,.28.13.36.42.36h1.73c.88,0,1.37.38,1.37,1.39v4.47c0,1.5-.53,2.06-2.11,2.06h-3.41Z"/>
          </g>
          <g>
            <path class="cls-1" d="m.21,31.2h5.37l.48,2.53h-3.01v3.22h2.29v2.34h-2.29v5.49H.21v-13.57Z"/>
            <path class="cls-1" d="m14.73,42.85c0,1.03-.44,1.93-1.98,1.93h-3.2c-1.54,0-1.98-.9-1.98-1.93v-9.88c0-1.07.57-1.76,1.87-1.76h3.43c1.29,0,1.87.69,1.87,1.76v9.88Zm-4.13-9.27c-.19,0-.25.09-.25.26v8.28c0,.21.04.28.27.28h1.05c.23,0,.27-.08.27-.28v-8.28c0-.17-.06-.26-.25-.26h-1.08Z"/>
            <path class="cls-1" d="m23.66,39.25c0,.6-.44,1.2-1.24,1.2l1.45,4.33h-2.86l-1.33-4.33h-.36v4.33h-2.76v-13.57h5.24c1.29,0,1.87.69,1.87,1.76v6.29Zm-4.34-5.67v4.68h1.35c.21,0,.27-.07.27-.28v-4.12c0-.17-.08-.28-.27-.28h-1.35Z"/>
            <path class="cls-1" d="m31.24,43.09l-.25,1.68h-2.78l2.5-13.57h2.95l2.49,13.57h-2.78l-.25-1.68h-1.88Zm.3-2.15h1.28l-.63-4.81-.65,4.81Z"/>
            <path class="cls-1" d="m44.71,39.25c0,.6-.44,1.2-1.24,1.2l1.45,4.33h-2.86l-1.33-4.33h-.36v4.33h-2.76v-13.57h5.24c1.29,0,1.87.69,1.87,1.76v6.29Zm-4.34-5.67v4.68h1.35c.21,0,.27-.07.27-.28v-4.12c0-.17-.08-.28-.27-.28h-1.35Z"/>
            <path class="cls-1" d="m51.98,31.2l.69,2.53h-1.85v11.05h-2.82v-11.05h-1.85l.72-2.53h5.1Z"/>
            <path class="cls-1" d="m54.12,31.2h2.76v13.57h-2.76v-13.57Z"/>
            <path class="cls-1" d="m59.39,44.78l-.5-2.53h2.97c.25,0,.32-.08.32-.28v-2.47c0-.38-.13-.39-.51-.39h-1.43c-.82,0-1.54-.19-1.54-1.54v-4.61c0-1.07.57-1.76,1.87-1.76h3.81l.48,2.53h-3.12c-.23,0-.34.09-.34.3v2.47c0,.28.13.36.42.36h1.73c.88,0,1.37.38,1.37,1.39v4.47c0,1.5-.53,2.06-2.11,2.06h-3.41Z"/>
            <path class="cls-1" d="m72,31.2l.69,2.53h-1.85v11.05h-2.82v-11.05h-1.85l.72-2.53h5.1Z"/>
            <path class="cls-1" d="m74.78,44.78l-.5-2.53h2.97c.25,0,.32-.08.32-.28v-2.47c0-.38-.13-.39-.51-.39h-1.43c-.82,0-1.54-.19-1.54-1.54v-4.61c0-1.07.57-1.76,1.87-1.76h3.81l.48,2.53h-3.12c-.23,0-.34.09-.34.3v2.47c0,.28.13.36.42.36h1.73c.88,0,1.37.38,1.37,1.39v4.47c0,1.5-.53,2.06-2.11,2.06h-3.41Z"/>
          </g>
          <g>
            <path class="cls-1" d="m.14,31.13h5.37l.48,2.53h-3.01v3.22h2.29v2.34h-2.29v5.49H.14v-13.57Z"/>
            <path class="cls-1" d="m14.65,42.77c0,1.03-.44,1.93-1.98,1.93h-3.2c-1.54,0-1.98-.9-1.98-1.93v-9.88c0-1.07.57-1.76,1.87-1.76h3.43c1.29,0,1.87.69,1.87,1.76v9.88Zm-4.13-9.27c-.19,0-.25.09-.25.26v8.28c0,.21.04.28.27.28h1.05c.23,0,.27-.08.27-.28v-8.28c0-.17-.06-.26-.25-.26h-1.08Z"/>
            <path class="cls-1" d="m23.58,39.18c0,.6-.44,1.2-1.24,1.2l1.45,4.33h-2.86l-1.33-4.33h-.36v4.33h-2.76v-13.57h5.24c1.29,0,1.87.69,1.87,1.76v6.29Zm-4.34-5.67v4.68h1.35c.21,0,.27-.07.27-.28v-4.12c0-.17-.08-.28-.27-.28h-1.35Z"/>
            <path class="cls-1" d="m31.16,43.02l-.25,1.68h-2.78l2.5-13.57h2.95l2.49,13.57h-2.78l-.25-1.68h-1.88Zm.3-2.15h1.28l-.63-4.81-.65,4.81Z"/>
            <path class="cls-1" d="m44.63,39.18c0,.6-.44,1.2-1.24,1.2l1.45,4.33h-2.86l-1.33-4.33h-.36v4.33h-2.76v-13.57h5.24c1.29,0,1.87.69,1.87,1.76v6.29Zm-4.34-5.67v4.68h1.35c.21,0,.27-.07.27-.28v-4.12c0-.17-.08-.28-.27-.28h-1.35Z"/>
            <path class="cls-1" d="m51.9,31.13l.69,2.53h-1.85v11.05h-2.82v-11.05h-1.85l.72-2.53h5.1Z"/>
            <path class="cls-1" d="m54.04,31.13h2.76v13.57h-2.76v-13.57Z"/>
            <path class="cls-1" d="m59.31,44.7l-.5-2.53h2.97c.25,0,.32-.08.32-.28v-2.47c0-.38-.13-.39-.51-.39h-1.43c-.82,0-1.54-.19-1.54-1.54v-4.61c0-1.07.57-1.76,1.87-1.76h3.81l.48,2.53h-3.12c-.23,0-.34.09-.34.3v2.47c0,.28.13.36.42.36h1.73c.88,0,1.37.38,1.37,1.39v4.47c0,1.5-.53,2.06-2.11,2.06h-3.41Z"/>
            <path class="cls-1" d="m71.92,31.13l.69,2.53h-1.85v11.05h-2.82v-11.05h-1.85l.72-2.53h5.1Z"/>
            <path class="cls-1" d="m74.7,44.7l-.5-2.53h2.97c.25,0,.32-.08.32-.28v-2.47c0-.38-.13-.39-.51-.39h-1.43c-.82,0-1.54-.19-1.54-1.54v-4.61c0-1.07.57-1.76,1.87-1.76h3.81l.48,2.53h-3.12c-.23,0-.34.09-.34.3v2.47c0,.28.13.36.42.36h1.73c.88,0,1.37.38,1.37,1.39v4.47c0,1.5-.53,2.06-2.11,2.06h-3.41Z"/>
          </g>
        </g>
        <g>
          <path class="cls-4" d="m.14,31.13h5.37l.48,2.53h-3.01v3.22h2.29v2.34h-2.29v5.49H.14v-13.57Z"/>
          <path class="cls-4" d="m14.65,42.77c0,1.03-.44,1.93-1.98,1.93h-3.2c-1.54,0-1.98-.9-1.98-1.93v-9.88c0-1.07.57-1.76,1.87-1.76h3.43c1.29,0,1.87.69,1.87,1.76v9.88Zm-4.13-9.27c-.19,0-.25.09-.25.26v8.28c0,.21.04.28.27.28h1.05c.23,0,.27-.08.27-.28v-8.28c0-.17-.06-.26-.25-.26h-1.08Z"/>
          <path class="cls-4" d="m23.58,39.18c0,.6-.44,1.2-1.24,1.2l1.45,4.33h-2.86l-1.33-4.33h-.36v4.33h-2.76v-13.57h5.24c1.29,0,1.87.69,1.87,1.76v6.29Zm-4.34-5.67v4.68h1.35c.21,0,.27-.07.27-.28v-4.12c0-.17-.08-.28-.27-.28h-1.35Z"/>
          <path class="cls-4" d="m31.16,43.02l-.25,1.68h-2.78l2.5-13.57h2.95l2.49,13.57h-2.78l-.25-1.68h-1.88Zm.3-2.15h1.28l-.63-4.81-.65,4.81Z"/>
          <path class="cls-4" d="m44.63,39.18c0,.6-.44,1.2-1.24,1.2l1.45,4.33h-2.86l-1.33-4.33h-.36v4.33h-2.76v-13.57h5.24c1.29,0,1.87.69,1.87,1.76v6.29Zm-4.34-5.67v4.68h1.35c.21,0,.27-.07.27-.28v-4.12c0-.17-.08-.28-.27-.28h-1.35Z"/>
          <path class="cls-4" d="m51.9,31.13l.69,2.53h-1.85v11.05h-2.82v-11.05h-1.85l.72-2.53h5.1Z"/>
          <path class="cls-4" d="m54.04,31.13h2.76v13.57h-2.76v-13.57Z"/>
          <path class="cls-4" d="m59.31,44.7l-.5-2.53h2.97c.25,0,.32-.08.32-.28v-2.47c0-.38-.13-.39-.51-.39h-1.43c-.82,0-1.54-.19-1.54-1.54v-4.61c0-1.07.57-1.76,1.87-1.76h3.81l.48,2.53h-3.12c-.23,0-.34.09-.34.3v2.47c0,.28.13.36.42.36h1.73c.88,0,1.37.38,1.37,1.39v4.47c0,1.5-.53,2.06-2.11,2.06h-3.41Z"/>
          <path class="cls-4" d="m71.92,31.13l.69,2.53h-1.85v11.05h-2.82v-11.05h-1.85l.72-2.53h5.1Z"/>
          <path class="cls-4" d="m74.7,44.7l-.5-2.53h2.97c.25,0,.32-.08.32-.28v-2.47c0-.38-.13-.39-.51-.39h-1.43c-.82,0-1.54-.19-1.54-1.54v-4.61c0-1.07.57-1.76,1.87-1.76h3.81l.48,2.53h-3.12c-.23,0-.34.09-.34.3v2.47c0,.28.13.36.42.36h1.73c.88,0,1.37.38,1.37,1.39v4.47c0,1.5-.53,2.06-2.11,2.06h-3.41Z"/>
        </g>
      </g>
    </g>
  </g>
</svg>